<svg width="11" height="3" viewBox="0 0 11 3" fill="none" xmlns="http://www.w3.org/2000/svg">
<path opacity="0.6" d="M1.04011 4.3869e-05C1.34944 4.3869e-05 1.60011 0.0960439 1.79211 0.288044C1.98411 0.480044 2.08011 0.730711 2.08011 1.04004C2.08011 1.34938 1.98411 1.60004 1.79211 1.79204C1.60011 1.98404 1.34944 2.08004 1.04011 2.08004C0.730776 2.08004 0.480109 1.98404 0.288109 1.79204C0.0961094 1.60004 0.000109434 1.34938 0.000109434 1.04004C0.000109434 0.730711 0.0961094 0.480044 0.288109 0.288044C0.480109 0.0960439 0.730776 4.3869e-05 1.04011 4.3869e-05ZM5.29011 4.3869e-05C5.59944 4.3869e-05 5.85011 0.0960439 6.04211 0.288044C6.23411 0.480044 6.33011 0.730711 6.33011 1.04004C6.33011 1.34938 6.23411 1.60004 6.04211 1.79204C5.85011 1.98404 5.59944 2.08004 5.29011 2.08004C4.98078 2.08004 4.73011 1.98404 4.53811 1.79204C4.34611 1.60004 4.25011 1.34938 4.25011 1.04004C4.25011 0.730711 4.34611 0.480044 4.53811 0.288044C4.73011 0.0960439 4.98078 4.3869e-05 5.29011 4.3869e-05ZM9.54011 4.3869e-05C9.84944 4.3869e-05 10.1001 0.0960439 10.2921 0.288044C10.4841 0.480044 10.5801 0.730711 10.5801 1.04004C10.5801 1.34938 10.4841 1.60004 10.2921 1.79204C10.1001 1.98404 9.84944 2.08004 9.54011 2.08004C9.23078 2.08004 8.98011 1.98404 8.78811 1.79204C8.59611 1.60004 8.50011 1.34938 8.50011 1.04004C8.50011 0.730711 8.59611 0.480044 8.78811 0.288044C8.98011 0.0960439 9.23078 4.3869e-05 9.54011 4.3869e-05Z" fill="#545F7D"/>
</svg>
